<svg version="1.1" id="Layer_1" xmlns="http://www.w3.org/2000/svg" xmlns:xlink="http://www.w3.org/1999/xlink" x="0px" y="0px"
	 width="100%" viewBox="0 200 800 400" preserveAspectRatio="xMidYMid meet" enable-background="new 0 0 800 800" xml:space="preserve">
<path fill="#FFFFFF" opacity="1.000000" stroke="none" 
	d="
M432.000000,801.000000 
	C288.000000,801.000000 144.500000,801.000000 1.000000,801.000000 
	C1.000000,534.333313 1.000000,267.666656 1.000000,1.000000 
	C267.666656,1.000000 534.333313,1.000000 801.000000,1.000000 
	C801.000000,267.666656 801.000000,534.333313 801.000000,801.000000 
	C678.166687,801.000000 555.333313,801.000000 432.000000,801.000000 
M9.230792,412.071594 
	C11.283408,429.355621 16.969948,445.263702 26.521330,459.899078 
	C60.310699,511.673920 134.582047,523.017395 182.110992,483.536377 
	C229.125793,444.482513 234.618134,376.561737 194.493698,330.406860 
	C160.733093,291.572296 100.811996,283.054779 57.921692,311.519958 
	C22.396633,335.097076 6.569373,368.712402 9.230792,412.071594 
M345.116089,362.510284 
	C345.116089,358.105927 345.116089,353.701599 345.116089,349.490540 
	C338.892334,349.490540 333.644135,349.490540 328.466217,349.490540 
	C328.466217,368.364380 328.466217,386.851898 328.466217,406.336517 
	C327.429108,404.190643 326.755341,402.924500 326.191833,401.611023 
	C319.501801,386.018005 312.882446,370.394226 306.086304,354.847748 
	C305.168579,352.748413 303.638092,349.720306 301.949951,349.392059 
	C297.847351,348.594238 293.484985,349.132416 289.478821,349.132416 
	C289.478821,384.193451 289.478821,418.416504 289.478821,452.618683 
	C295.383179,452.618683 300.794830,452.618683 306.290283,452.618683 
	C306.290283,435.109192 306.290283,417.939453 306.290283,399.883636 
	C306.989349,401.276245 307.342346,401.946136 307.666382,402.629761 
	C315.070862,418.252045 322.432556,433.894958 329.941772,449.466736 
	C330.615265,450.863342 332.138794,452.636139 333.441895,452.793884 
	C337.165405,453.244507 340.978851,452.952362 345.116150,452.952362 
	C345.116150,422.742767 345.116150,393.124512 345.116089,362.510284 
M459.768921,349.603149 
	C438.275879,342.772522 419.683960,355.926971 419.317719,378.478943 
	C419.066498,393.949371 419.261322,409.427155 419.269409,424.901672 
	C419.273926,433.578125 422.865906,440.751495 429.047729,446.536133 
	C437.932190,454.849792 448.504517,456.785065 459.564117,452.184814 
	C470.938690,447.453522 477.478058,438.293671 477.877808,425.901581 
	C478.371063,410.610565 477.831482,395.289154 477.996216,379.983704 
	C478.142761,366.368469 472.496918,356.331573 459.768921,349.603149 
M515.341858,413.103821 
	C517.581482,414.536194 520.028992,415.729950 522.011230,417.457642 
	C524.886353,419.963531 526.610962,423.048920 525.411804,427.195038 
	C523.660950,433.248871 519.029236,436.904785 513.446350,436.360992 
	C508.073456,435.837677 503.827271,431.123505 503.424194,425.028717 
	C503.252563,422.433746 503.395538,419.817963 503.395538,417.106079 
	C497.093628,417.106079 491.492554,417.106079 484.949554,417.106079 
	C485.411774,422.314392 485.363373,427.307098 486.374390,432.075134 
	C488.940399,444.177155 500.380341,453.606750 512.711914,454.345184 
	C525.732361,455.124847 537.531677,447.496307 542.042236,435.382141 
	C546.641418,423.030060 543.038208,410.452545 532.340454,402.557007 
	C529.016052,400.103424 525.182312,398.350647 521.656250,396.157379 
	C516.601746,393.013489 511.145844,390.292450 506.733795,386.401520 
	C502.416504,382.594208 502.331604,375.274414 505.279724,370.716125 
	C508.079956,366.386505 512.690735,364.461884 517.289612,365.703094 
	C522.562744,367.126251 525.558228,371.499878 525.776123,378.357025 
	C525.895386,382.110870 525.797485,385.871643 525.797485,389.527649 
	C532.190430,389.527649 537.751343,389.527649 543.347412,389.527649 
	C543.347412,383.700104 543.878845,378.181946 543.248840,372.799805 
	C541.280701,355.986816 524.322449,344.524323 507.827423,348.493988 
	C496.977325,351.105133 487.568207,360.740234 486.060944,371.464966 
	C484.146362,385.087494 487.936523,396.589783 499.960754,404.355347 
	C504.704285,407.418762 509.757294,410.002960 515.341858,413.103821 
M791.655273,375.855743 
	C791.555420,374.861847 791.482117,373.864471 791.351685,372.874603 
	C789.519836,358.973511 777.917419,348.386505 763.930847,347.844696 
	C749.719482,347.294128 736.927002,357.156097 734.149963,370.803223 
	C731.284363,384.885376 737.079346,398.026825 749.502625,405.348541 
	C755.802795,409.061554 762.319397,412.419250 768.511658,416.299164 
	C772.566650,418.839935 775.003296,422.532501 773.322327,427.718231 
	C771.429626,433.557251 766.837097,436.897919 761.444824,436.360535 
	C756.180664,435.835938 751.812439,430.978973 751.423706,425.016846 
	C751.254700,422.424255 751.395386,419.811462 751.395386,417.143951 
	C745.097595,417.143951 739.509827,417.143951 733.168457,417.143951 
	C733.410950,421.384857 733.417297,425.333282 733.899475,429.222717 
	C735.455017,441.770477 746.172180,452.588013 758.322327,454.095490 
	C772.143066,455.810333 784.489136,448.816132 789.766907,436.281738 
	C794.884399,424.127991 791.180725,410.580353 780.325745,402.530670 
	C777.405640,400.365234 774.098755,398.716431 770.945679,396.871033 
	C766.213501,394.101410 761.250000,391.668762 756.771362,388.539551 
	C751.597961,384.924866 749.980103,377.456848 752.563171,371.989563 
	C754.830566,367.190338 759.871216,364.560577 764.862061,365.573090 
	C770.389404,366.694427 773.614075,371.438141 773.787598,378.864777 
	C773.871399,382.450836 773.802063,386.040497 773.802063,389.528778 
	C780.191833,389.528778 785.751160,389.528778 791.752625,389.528778 
	C791.752625,385.035278 791.752625,380.904907 791.655273,375.855743 
M637.525757,349.099945 
	C627.621643,349.099945 627.583313,349.092926 625.783325,358.934387 
	C621.475220,382.489380 617.198364,406.050110 612.927551,429.611908 
	C611.547974,437.222992 610.226562,444.844635 608.835632,452.704285 
	C615.086182,452.704285 620.678528,452.704285 626.505188,452.704285 
	C627.156189,448.949951 627.771606,445.400665 628.420349,441.659271 
	C635.228760,441.659271 641.800781,441.659271 648.561401,441.659271 
	C649.236450,445.434753 649.870300,448.980164 650.509094,452.553040 
	C656.457458,452.553040 662.140442,452.553040 667.969849,452.553040 
	C667.890442,451.310669 667.914856,450.474915 667.774109,449.667999 
	C662.599854,419.996552 657.466309,390.317841 652.194702,360.663666 
	C650.134521,349.074341 649.991089,349.099823 637.525757,349.099945 
M389.509369,367.124084 
	C395.427948,367.124084 401.346527,367.124084 407.202515,367.124084 
	C407.202515,360.707336 407.202515,355.013000 407.202515,349.439758 
	C390.797638,349.439758 374.893982,349.439758 358.609650,349.439758 
	C358.609650,384.019806 358.609650,418.254578 358.609650,452.624969 
	C364.568420,452.624969 370.277740,452.624969 376.546570,452.624969 
	C376.546570,437.893402 376.546570,423.498077 376.546570,408.592743 
	C387.182404,408.592743 397.263275,408.592743 407.774445,408.592743 
	C407.774445,403.773193 407.575562,399.461365 407.833252,395.176971 
	C408.066681,391.296265 406.791992,389.906952 402.742218,390.047516 
	C394.120392,390.346619 385.480957,390.138885 376.745483,390.138885 
	C376.745483,382.272644 376.745483,374.897583 376.745483,367.124084 
	C380.904327,367.124084 384.709747,367.124084 389.509369,367.124084 
M586.604553,391.500122 
	C586.604553,383.544830 586.604553,375.589539 586.604553,367.092499 
	C593.517334,367.092499 599.919250,367.092499 606.339539,367.092499 
	C606.339539,360.817230 606.339539,355.100952 606.339539,349.302216 
	C586.984497,349.302216 568.038940,349.302216 548.678589,349.302216 
	C548.678589,355.232697 548.678589,360.951904 548.678589,367.252136 
	C555.282654,367.252136 561.683044,367.252136 568.563538,367.252136 
	C568.563538,396.081238 568.563538,424.338806 568.563538,452.657532 
	C574.810974,452.657532 580.550049,452.657532 586.604370,452.657532 
	C586.604370,432.390869 586.604370,412.445496 586.604553,391.500122 
M709.951050,376.541351 
	C709.951050,373.459442 709.951050,370.377563 709.951050,366.814026 
	C717.112061,366.814026 723.517517,366.814026 729.722900,366.814026 
	C729.722900,360.713715 729.722900,355.127960 729.722900,349.482361 
	C710.343750,349.482361 691.305664,349.482361 672.106567,349.482361 
	C672.106567,355.452484 672.106567,361.042664 672.106567,367.225769 
	C678.723816,367.225769 685.108215,367.225769 691.958740,367.225769 
	C691.958740,396.045380 691.958740,424.273651 691.958740,452.665527 
	C698.170715,452.665527 703.890991,452.665527 709.951050,452.665527 
	C709.951050,427.424866 709.951050,402.476685 709.951050,376.541351 
M267.473145,452.963654 
	C270.213013,452.963654 272.952850,452.963654 275.478333,452.963654 
	C275.478333,417.921967 275.478333,383.737732 275.478333,349.418365 
	C269.494965,349.418365 263.937195,349.418365 258.196838,349.418365 
	C258.196838,384.042603 258.196838,418.347992 258.196838,452.963623 
	C261.224030,452.963623 263.861908,452.963623 267.473145,452.963654 
z"/>
<path fill="#061EFF" opacity="1.000000" stroke="none" 
	d="
M9.193460,411.607788 
	C6.569373,368.712402 22.396633,335.097076 57.921692,311.519958 
	C100.811996,283.054779 160.733093,291.572296 194.493698,330.406860 
	C234.618134,376.561737 229.125793,444.482513 182.110992,483.536377 
	C134.582047,523.017395 60.310699,511.673920 26.521330,459.899078 
	C16.969948,445.263702 11.283408,429.355621 9.193460,411.607788 
M113.846260,416.178772 
	C119.594650,416.357605 120.975967,417.635986 121.026886,422.865509 
	C121.124176,432.859131 121.187073,442.853149 121.312767,452.846405 
	C121.375580,457.840637 121.329521,462.854584 121.813019,467.812775 
	C121.939613,469.110992 123.861122,470.234161 124.958328,471.437744 
	C125.981155,470.164001 127.418198,469.030914 127.911728,467.577454 
	C128.417633,466.087585 127.989166,464.284271 127.988762,462.618134 
	C127.985596,449.520233 127.987007,436.422302 127.987007,422.538940 
	C131.595337,424.587555 134.707184,426.395233 137.859116,428.130096 
	C140.157730,429.395264 142.887482,431.473206 144.760681,428.150330 
	C146.460663,425.134735 143.529678,423.791595 141.381378,422.545837 
	C137.637375,420.374786 133.785172,418.381958 130.121078,416.086548 
	C129.015350,415.393860 127.610931,413.885193 127.694016,412.859711 
	C127.861259,410.795197 128.516495,408.459839 129.770523,406.865601 
	C131.714035,404.394714 134.240967,405.023315 136.862457,406.535309 
	C149.257324,413.684326 161.740997,420.679413 174.196899,427.722534 
	C176.375305,428.954315 178.882660,430.765594 180.732529,427.777069 
	C182.861786,424.337097 179.546494,423.151947 177.373871,421.841766 
	C174.098053,419.866302 170.683044,418.123108 167.349213,416.242188 
	C158.405045,411.196075 149.472580,406.129303 139.978470,400.755463 
	C144.345993,398.131470 148.189590,396.139587 151.616592,393.588135 
	C152.786545,392.717041 152.910202,390.440613 153.511932,388.806335 
	C151.766296,388.593109 149.689499,387.670197 148.337692,388.300964 
	C144.436707,390.121246 140.812790,392.542664 137.108673,394.775482 
	C133.517563,396.940155 128.953125,396.482452 127.794075,393.306061 
	C126.542557,389.876221 126.953842,386.919830 131.002258,384.657104 
	C143.633606,377.597198 156.047989,370.139038 168.368362,362.546265 
	C169.812225,361.656464 170.146133,358.965607 170.994614,357.109711 
	C169.063705,357.064636 166.760376,356.312317 165.267273,357.098602 
	C159.237869,360.273560 153.469772,363.942535 147.583450,367.391998 
	C140.945160,371.282043 134.283463,375.132172 127.077255,379.322235 
	C127.077255,374.291473 127.384575,370.258911 126.932800,366.313263 
	C126.739922,364.628723 124.962936,363.125549 123.905777,361.539978 
	C122.721298,363.203949 120.679787,364.790222 120.520447,366.547180 
	C120.116959,370.996094 120.751945,375.530151 120.555237,380.011871 
	C120.487610,381.552643 119.552643,383.810150 118.366570,384.370850 
	C116.571945,385.219208 114.144264,385.268372 112.106323,384.929962 
	C109.352722,384.472687 108.937408,382.241547 108.930130,379.625397 
	C108.890266,365.299988 108.694977,350.974792 108.491173,336.650360 
	C108.454422,334.067230 108.928345,330.596130 105.040878,330.689819 
	C101.530586,330.774384 102.006233,333.979004 102.016075,336.456482 
	C102.031303,340.288544 102.090752,344.120544 102.095108,347.952606 
	C102.106758,358.197327 102.099075,368.442078 102.099075,379.356628 
	C97.795418,376.982758 94.163116,374.649719 90.243431,372.999084 
	C88.904480,372.435211 86.844116,373.584442 85.113380,373.950958 
	C85.759186,375.471039 85.980530,377.617004 87.128990,378.395874 
	C90.833252,380.908020 94.866272,382.939606 98.796799,385.112579 
	C102.177574,386.981598 103.702988,390.807465 102.150475,393.681305 
	C100.635994,396.484741 96.482040,397.251526 93.110413,395.344421 
	C80.512733,388.218842 67.969391,380.993164 55.250248,374.091461 
	C53.698818,373.249664 50.220707,373.334503 49.347004,374.397156 
	C47.337036,376.841705 49.743740,378.528137 51.863628,379.721436 
	C57.666351,382.987762 63.504810,386.190613 69.306351,389.459015 
	C76.059517,393.263489 82.788513,397.110901 90.068611,401.246796 
	C85.602173,403.924408 81.759926,405.953339 78.274033,408.474884 
	C77.140465,409.294861 76.938164,411.402252 76.309914,412.920776 
	C78.020882,413.281067 80.104599,414.444244 81.374557,413.854614 
	C85.581131,411.901703 89.717255,409.621979 93.457497,406.888885 
	C97.196175,404.156921 99.815659,405.994415 102.067810,408.437225 
	C104.198425,410.748291 102.555595,415.094269 99.288200,417.033905 
	C86.698776,424.507294 74.061508,431.903015 61.592388,439.572113 
	C60.185722,440.437256 59.732254,442.852142 58.836773,444.548431 
	C60.877258,444.703979 63.234921,445.588959 64.894081,444.867523 
	C68.681480,443.220673 72.127007,440.787476 75.711166,438.673248 
	C84.534409,433.468689 93.357529,428.263855 102.922546,422.621521 
	C102.922546,427.373718 102.882668,431.150452 102.936630,434.925781 
	C102.972397,437.427399 102.852997,440.726562 106.342087,440.189545 
	C107.710602,439.978912 109.300430,436.693176 109.543243,434.659149 
	C109.992691,430.894104 109.776085,426.992065 109.362419,423.198853 
	C108.999756,419.873260 109.943298,417.701752 113.846260,416.178772 
z"/>
<path fill="#081FFF" opacity="1.000000" stroke="none" 
	d="
M345.116119,363.008270 
	C345.116150,393.124512 345.116150,422.742767 345.116150,452.952362 
	C340.978851,452.952362 337.165405,453.244507 333.441895,452.793884 
	C332.138794,452.636139 330.615265,450.863342 329.941772,449.466736 
	C322.432556,433.894958 315.070862,418.252045 307.666382,402.629761 
	C307.342346,401.946136 306.989349,401.276245 306.290283,399.883636 
	C306.290283,417.939453 306.290283,435.109192 306.290283,452.618683 
	C300.794830,452.618683 295.383179,452.618683 289.478821,452.618683 
	C289.478821,418.416504 289.478821,384.193451 289.478821,349.132416 
	C293.484985,349.132416 297.847351,348.594238 301.949951,349.392059 
	C303.638092,349.720306 305.168579,352.748413 306.086304,354.847748 
	C312.882446,370.394226 319.501801,386.018005 326.191833,401.611023 
	C326.755341,402.924500 327.429108,404.190643 328.466217,406.336517 
	C328.466217,386.851898 328.466217,368.364380 328.466217,349.490540 
	C333.644135,349.490540 338.892334,349.490540 345.116089,349.490540 
	C345.116089,353.701599 345.116089,358.105927 345.116119,363.008270 
z"/>
<path fill="#0A21FF" opacity="1.000000" stroke="none" 
	d="
M460.116760,349.760529 
	C472.496918,356.331573 478.142761,366.368469 477.996216,379.983704 
	C477.831482,395.289154 478.371063,410.610565 477.877808,425.901581 
	C477.478058,438.293671 470.938690,447.453522 459.564117,452.184814 
	C448.504517,456.785065 437.932190,454.849792 429.047729,446.536133 
	C422.865906,440.751495 419.273926,433.578125 419.269409,424.901672 
	C419.261322,409.427155 419.066498,393.949371 419.317719,378.478943 
	C419.683960,355.926971 438.275879,342.772522 460.116760,349.760529 
M437.612518,414.491028 
	C437.651611,417.981903 437.570374,421.479126 437.755371,424.962250 
	C438.115295,431.738159 442.566620,436.393372 448.523132,436.418518 
	C454.361938,436.443176 459.656311,431.676361 459.736877,425.241058 
	C459.943268,408.757172 459.847229,392.264618 459.531921,375.782043 
	C459.439148,370.931305 456.594238,367.358704 451.705811,365.920624 
	C447.036224,364.546875 442.769165,365.806519 440.253418,369.733612 
	C438.581696,372.343109 437.838654,375.933258 437.763000,379.110291 
	C437.490173,390.565521 437.676575,402.031708 437.612518,414.491028 
z"/>
<path fill="#0921FF" opacity="1.000000" stroke="none" 
	d="
M515.005615,412.954590 
	C509.757294,410.002960 504.704285,407.418762 499.960754,404.355347 
	C487.936523,396.589783 484.146362,385.087494 486.060944,371.464966 
	C487.568207,360.740234 496.977325,351.105133 507.827423,348.493988 
	C524.322449,344.524323 541.280701,355.986816 543.248840,372.799805 
	C543.878845,378.181946 543.347412,383.700104 543.347412,389.527649 
	C537.751343,389.527649 532.190430,389.527649 525.797485,389.527649 
	C525.797485,385.871643 525.895386,382.110870 525.776123,378.357025 
	C525.558228,371.499878 522.562744,367.126251 517.289612,365.703094 
	C512.690735,364.461884 508.079956,366.386505 505.279724,370.716125 
	C502.331604,375.274414 502.416504,382.594208 506.733795,386.401520 
	C511.145844,390.292450 516.601746,393.013489 521.656250,396.157379 
	C525.182312,398.350647 529.016052,400.103424 532.340454,402.557007 
	C543.038208,410.452545 546.641418,423.030060 542.042236,435.382141 
	C537.531677,447.496307 525.732361,455.124847 512.711914,454.345184 
	C500.380341,453.606750 488.940399,444.177155 486.374390,432.075134 
	C485.363373,427.307098 485.411774,422.314392 484.949554,417.106079 
	C491.492554,417.106079 497.093628,417.106079 503.395538,417.106079 
	C503.395538,419.817963 503.252563,422.433746 503.424194,425.028717 
	C503.827271,431.123505 508.073456,435.837677 513.446350,436.360992 
	C519.029236,436.904785 523.660950,433.248871 525.411804,427.195038 
	C526.610962,423.048920 524.886353,419.963531 522.011230,417.457642 
	C520.028992,415.729950 517.581482,414.536194 515.005615,412.954590 
z"/>
<path fill="#0921FF" opacity="1.000000" stroke="none" 
	d="
M791.703979,376.315155 
	C791.752625,380.904907 791.752625,385.035278 791.752625,389.528778 
	C785.751160,389.528778 780.191833,389.528778 773.802063,389.528778 
	C773.802063,386.040497 773.871399,382.450836 773.787598,378.864777 
	C773.614075,371.438141 770.389404,366.694427 764.862061,365.573090 
	C759.871216,364.560577 754.830566,367.190338 752.563171,371.989563 
	C749.980103,377.456848 751.597961,384.924866 756.771362,388.539551 
	C761.250000,391.668762 766.213501,394.101410 770.945679,396.871033 
	C774.098755,398.716431 777.405640,400.365234 780.325745,402.530670 
	C791.180725,410.580353 794.884399,424.127991 789.766907,436.281738 
	C784.489136,448.816132 772.143066,455.810333 758.322327,454.095490 
	C746.172180,452.588013 735.455017,441.770477 733.899475,429.222717 
	C733.417297,425.333282 733.410950,421.384857 733.168457,417.143951 
	C739.509827,417.143951 745.097595,417.143951 751.395386,417.143951 
	C751.395386,419.811462 751.254700,422.424255 751.423706,425.016846 
	C751.812439,430.978973 756.180664,435.835938 761.444824,436.360535 
	C766.837097,436.897919 771.429626,433.557251 773.322327,427.718231 
	C775.003296,422.532501 772.566650,418.839935 768.511658,416.299164 
	C762.319397,412.419250 755.802795,409.061554 749.502625,405.348541 
	C737.079346,398.026825 731.284363,384.885376 734.149963,370.803223 
	C736.927002,357.156097 749.719482,347.294128 763.930847,347.844696 
	C777.917419,348.386505 789.519836,358.973511 791.351685,372.874603 
	C791.482117,373.864471 791.555420,374.861847 791.703979,376.315155 
z"/>
<path fill="#0921FF" opacity="1.000000" stroke="none" 
	d="
M638.014343,349.099976 
	C649.991089,349.099823 650.134521,349.074341 652.194702,360.663666 
	C657.466309,390.317841 662.599854,419.996552 667.774109,449.667999 
	C667.914856,450.474915 667.890442,451.310669 667.969849,452.553040 
	C662.140442,452.553040 656.457458,452.553040 650.509094,452.553040 
	C649.870300,448.980164 649.236450,445.434753 648.561401,441.659271 
	C641.800781,441.659271 635.228760,441.659271 628.420349,441.659271 
	C627.771606,445.400665 627.156189,448.949951 626.505188,452.704285 
	C620.678528,452.704285 615.086182,452.704285 608.835632,452.704285 
	C610.226562,444.844635 611.547974,437.222992 612.927551,429.611908 
	C617.198364,406.050110 621.475220,382.489380 625.783325,358.934387 
	C627.583313,349.092926 627.621643,349.099945 638.014343,349.099976 
M631.745117,422.878296 
	C632.202454,423.675049 632.629456,425.140747 633.121948,425.163116 
	C637.215271,425.348999 641.320679,425.268524 645.740479,425.268524 
	C643.516846,410.568268 641.398926,396.566559 639.281006,382.564819 
	C638.901306,382.603729 638.521606,382.642609 638.141907,382.681519 
	C636.064331,395.802032 633.986755,408.922577 631.745117,422.878296 
z"/>
<path fill="#0B22FF" opacity="1.000000" stroke="none" 
	d="
M389.012268,367.124084 
	C384.709747,367.124084 380.904327,367.124084 376.745483,367.124084 
	C376.745483,374.897583 376.745483,382.272644 376.745483,390.138885 
	C385.480957,390.138885 394.120392,390.346619 402.742218,390.047516 
	C406.791992,389.906952 408.066681,391.296265 407.833252,395.176971 
	C407.575562,399.461365 407.774445,403.773193 407.774445,408.592743 
	C397.263275,408.592743 387.182404,408.592743 376.546570,408.592743 
	C376.546570,423.498077 376.546570,437.893402 376.546570,452.624969 
	C370.277740,452.624969 364.568420,452.624969 358.609650,452.624969 
	C358.609650,418.254578 358.609650,384.019806 358.609650,349.439758 
	C374.893982,349.439758 390.797638,349.439758 407.202515,349.439758 
	C407.202515,355.013000 407.202515,360.707336 407.202515,367.124084 
	C401.346527,367.124084 395.427948,367.124084 389.012268,367.124084 
z"/>
<path fill="#0E25FF" opacity="1.000000" stroke="none" 
	d="
M586.604492,392.000122 
	C586.604370,412.445496 586.604370,432.390869 586.604370,452.657532 
	C580.550049,452.657532 574.810974,452.657532 568.563538,452.657532 
	C568.563538,424.338806 568.563538,396.081238 568.563538,367.252136 
	C561.683044,367.252136 555.282654,367.252136 548.678589,367.252136 
	C548.678589,360.951904 548.678589,355.232697 548.678589,349.302216 
	C568.038940,349.302216 586.984497,349.302216 606.339539,349.302216 
	C606.339539,355.100952 606.339539,360.817230 606.339539,367.092499 
	C599.919250,367.092499 593.517334,367.092499 586.604553,367.092499 
	C586.604553,375.589539 586.604553,383.544830 586.604492,392.000122 
z"/>
<path fill="#081FFF" opacity="1.000000" stroke="none" 
	d="
M709.951050,377.034912 
	C709.951050,402.476685 709.951050,427.424866 709.951050,452.665527 
	C703.890991,452.665527 698.170715,452.665527 691.958740,452.665527 
	C691.958740,424.273651 691.958740,396.045380 691.958740,367.225769 
	C685.108215,367.225769 678.723816,367.225769 672.106567,367.225769 
	C672.106567,361.042664 672.106567,355.452484 672.106567,349.482361 
	C691.305664,349.482361 710.343750,349.482361 729.722900,349.482361 
	C729.722900,355.127960 729.722900,360.713715 729.722900,366.814026 
	C723.517517,366.814026 717.112061,366.814026 709.951050,366.814026 
	C709.951050,370.377563 709.951050,373.459442 709.951050,377.034912 
z"/>
<path fill="#0921FF" opacity="1.000000" stroke="none" 
	d="
M266.986450,452.963623 
	C263.861908,452.963623 261.224030,452.963623 258.196838,452.963623 
	C258.196838,418.347992 258.196838,384.042603 258.196838,349.418365 
	C263.937195,349.418365 269.494965,349.418365 275.478333,349.418365 
	C275.478333,383.737732 275.478333,417.921967 275.478333,452.963654 
	C272.952850,452.963654 270.213013,452.963654 266.986450,452.963623 
z"/>
<path fill="#F5F6FF" opacity="1.000000" stroke="none" 
	d="
M113.475616,416.373413 
	C109.943298,417.701752 108.999756,419.873260 109.362419,423.198853 
	C109.776085,426.992065 109.992691,430.894104 109.543243,434.659149 
	C109.300430,436.693176 107.710602,439.978912 106.342087,440.189545 
	C102.852997,440.726562 102.972397,437.427399 102.936630,434.925781 
	C102.882668,431.150452 102.922546,427.373718 102.922546,422.621521 
	C93.357529,428.263855 84.534409,433.468689 75.711166,438.673248 
	C72.127007,440.787476 68.681480,443.220673 64.894081,444.867523 
	C63.234921,445.588959 60.877258,444.703979 58.836773,444.548401 
	C59.732254,442.852142 60.185722,440.437256 61.592388,439.572113 
	C74.061508,431.903015 86.698776,424.507294 99.288200,417.033905 
	C102.555595,415.094269 104.198425,410.748291 102.067810,408.437225 
	C99.815659,405.994415 97.196175,404.156921 93.457497,406.888885 
	C89.717255,409.621979 85.581131,411.901703 81.374557,413.854614 
	C80.104599,414.444244 78.020882,413.281067 76.309914,412.920776 
	C76.938164,411.402252 77.140465,409.294861 78.274033,408.474884 
	C81.759926,405.953339 85.602173,403.924408 90.068611,401.246796 
	C82.788513,397.110901 76.059517,393.263489 69.306351,389.459015 
	C63.504810,386.190613 57.666351,382.987762 51.863628,379.721436 
	C49.743740,378.528137 47.337036,376.841705 49.347004,374.397156 
	C50.220707,373.334503 53.698818,373.249664 55.250248,374.091461 
	C67.969391,380.993164 80.512733,388.218842 93.110413,395.344421 
	C96.482040,397.251526 100.635994,396.484741 102.150475,393.681305 
	C103.702988,390.807465 102.177574,386.981598 98.796799,385.112579 
	C94.866272,382.939606 90.833252,380.908020 87.128990,378.395874 
	C85.980530,377.617004 85.759186,375.471039 85.113373,373.950928 
	C86.844116,373.584442 88.904480,372.435211 90.243431,372.999084 
	C94.163116,374.649719 97.795418,376.982758 102.099075,379.356628 
	C102.099075,368.442078 102.106758,358.197327 102.095108,347.952606 
	C102.090752,344.120544 102.031303,340.288544 102.016075,336.456482 
	C102.006233,333.979004 101.530586,330.774384 105.040878,330.689819 
	C108.928345,330.596130 108.454422,334.067230 108.491173,336.650360 
	C108.694977,350.974792 108.890266,365.299988 108.930130,379.625397 
	C108.937408,382.241547 109.352722,384.472687 112.106323,384.929962 
	C114.144264,385.268372 116.571945,385.219208 118.366570,384.370850 
	C119.552643,383.810150 120.487610,381.552643 120.555237,380.011871 
	C120.751945,375.530151 120.116959,370.996094 120.520447,366.547180 
	C120.679787,364.790222 122.721298,363.203949 123.905777,361.539978 
	C124.962936,363.125549 126.739922,364.628723 126.932800,366.313263 
	C127.384575,370.258911 127.077255,374.291473 127.077255,379.322235 
	C134.283463,375.132172 140.945160,371.282043 147.583450,367.391998 
	C153.469772,363.942535 159.237869,360.273560 165.267273,357.098602 
	C166.760376,356.312317 169.063705,357.064636 170.994598,357.109711 
	C170.146133,358.965607 169.812225,361.656464 168.368362,362.546265 
	C156.047989,370.139038 143.633606,377.597198 131.002258,384.657104 
	C126.953842,386.919830 126.542557,389.876221 127.794075,393.306061 
	C128.953125,396.482452 133.517563,396.940155 137.108673,394.775482 
	C140.812790,392.542664 144.436707,390.121246 148.337692,388.300964 
	C149.689499,387.670197 151.766296,388.593109 153.511932,388.806335 
	C152.910202,390.440613 152.786545,392.717041 151.616592,393.588135 
	C148.189590,396.139587 144.345993,398.131470 139.978470,400.755463 
	C149.472580,406.129303 158.405045,411.196075 167.349213,416.242188 
	C170.683044,418.123108 174.098053,419.866302 177.373871,421.841766 
	C179.546494,423.151947 182.861786,424.337097 180.732529,427.777069 
	C178.882660,430.765594 176.375305,428.954315 174.196899,427.722534 
	C161.740997,420.679413 149.257324,413.684326 136.862457,406.535309 
	C134.240967,405.023315 131.714035,404.394714 129.770523,406.865601 
	C128.516495,408.459839 127.861259,410.795197 127.694016,412.859711 
	C127.610931,413.885193 129.015350,415.393860 130.121078,416.086548 
	C133.785172,418.381958 137.637375,420.374786 141.381378,422.545837 
	C143.529678,423.791595 146.460663,425.134735 144.760681,428.150330 
	C142.887482,431.473206 140.157730,429.395264 137.859116,428.130096 
	C134.707184,426.395233 131.595337,424.587555 127.987007,422.538940 
	C127.987007,436.422302 127.985596,449.520233 127.988762,462.618134 
	C127.989166,464.284271 128.417633,466.087585 127.911728,467.577454 
	C127.418198,469.030914 125.981155,470.164001 124.958328,471.437744 
	C123.861122,470.234161 121.939613,469.110992 121.813019,467.812775 
	C121.329521,462.854584 121.375580,457.840637 121.312767,452.846405 
	C121.187073,442.853149 121.124176,432.859131 121.026886,422.865509 
	C120.975967,417.635986 119.594650,416.357605 113.475616,416.373413 
M116.160942,395.026245 
	C113.854912,396.231445 110.742882,396.917603 109.518234,398.819214 
	C108.661797,400.149109 109.709518,403.779236 111.101761,405.253632 
	C113.776253,408.086029 118.734657,407.195984 120.570015,404.226410 
	C122.214813,401.565125 120.507362,397.472931 116.160942,395.026245 
z"/>
<path fill="#FBFBFF" opacity="1.000000" stroke="none" 
	d="
M437.651001,413.992371 
	C437.676575,402.031708 437.490173,390.565521 437.763000,379.110291 
	C437.838654,375.933258 438.581696,372.343109 440.253418,369.733612 
	C442.769165,365.806519 447.036224,364.546875 451.705811,365.920624 
	C456.594238,367.358704 459.439148,370.931305 459.531921,375.782043 
	C459.847229,392.264618 459.943268,408.757172 459.736877,425.241058 
	C459.656311,431.676361 454.361938,436.443176 448.523132,436.418518 
	C442.566620,436.393372 438.115295,431.738159 437.755371,424.962250 
	C437.570374,421.479126 437.651611,417.981903 437.651001,413.992371 
z"/>
<path fill="#F6F7FF" opacity="1.000000" stroke="none" 
	d="
M631.827148,422.460693 
	C633.986755,408.922577 636.064331,395.802032 638.141907,382.681519 
	C638.521606,382.642609 638.901306,382.603729 639.281006,382.564819 
	C641.398926,396.566559 643.516846,410.568268 645.740479,425.268524 
	C641.320679,425.268524 637.215271,425.348999 633.121948,425.163116 
	C632.629456,425.140747 632.202454,423.675049 631.827148,422.460693 
z"/>
<path fill="#1128FF" opacity="1.000000" stroke="none" 
	d="
M116.520996,395.205750 
	C120.507362,397.472931 122.214813,401.565125 120.570015,404.226410 
	C118.734657,407.195984 113.776253,408.086029 111.101761,405.253632 
	C109.709518,403.779236 108.661797,400.149109 109.518234,398.819214 
	C110.742882,396.917603 113.854912,396.231445 116.520996,395.205750 
z"/>
</svg>